<svg width="423" height="396" fill="none" xmlns="http://www.w3.org/2000/svg"><path d="M421.271 385H3.933c16.957-38.449 42.204-137.608 7.536-226.649-43.335-111.3 43.335-133.56 139.427-114.336C246.987 63.24 268.655-6.575 319.527.507c50.872 7.083 49.93 66.78 47.104 97.135-2.826 30.355-46.162 93.088 11.305 157.845 45.973 51.805 48.045 107.927 43.335 129.513z" fill="#E3F2FD"/><g filter="url(#filter0_f)" clip-path="url(#clip0)"><path d="M259 37h48c13.255 0 24 10.745 24 24v317c0 12.703-10.297 23-23 23h-49V37z" fill="#6C93AC" fill-opacity=".3"/></g><g clip-path="url(#clip1)"><path d="M313 17H121v361h192V17z" fill="url(#paint0_linear)"/><path d="M298.853 9H136.147C123.361 9 113 19.33 113 32.076v329.848C113 374.67 123.361 385 136.147 385h162.706C311.639 385 322 374.67 322 361.924V32.076C322 19.33 311.639 9 298.853 9zm13.616 352.924c0 7.486-6.107 13.574-13.616 13.574H136.147c-7.509 0-13.616-6.088-13.616-13.574V32.076c0-7.486 6.107-13.574 13.616-13.574h162.706c7.509 0 13.616 6.088 13.616 13.574v329.848z" fill="#B1E0FF"/><path d="M144.871 211.497h27.657a44.82 44.82 0 015.613-20.855l-23.961-13.836c-5.783 10.282-9.146 22.099-9.309 34.691z" fill="#E03D3D"/><path d="M196.109 172.803a44.836 44.836 0 0120.807-5.449v-27.665c-12.565.122-24.368 3.432-34.643 9.154l13.836 23.96z" fill="#F3CD45"/><path d="M218.86 139.696v27.664a44.878 44.878 0 0120.692 5.654l13.836-23.961c-10.227-5.783-21.99-9.153-34.528-9.357z" fill="#D0F345"/><path d="M179.12 188.963a45.358 45.358 0 0115.31-15.195l-13.829-23.961a73.098 73.098 0 00-25.442 25.32l23.961 13.836z" fill="#F3A345"/><path d="M257.275 190.852a44.904 44.904 0 015.491 20.645h27.657c-.163-12.51-3.479-24.253-9.194-34.48l-23.954 13.835z" fill="#4FA808"/><path d="M241.231 173.986a45.298 45.298 0 0115.072 15.188l23.961-13.829a73.107 73.107 0 00-25.197-25.313l-13.836 23.954z" fill="#81E830"/><path d="M221.823 214.154l-7.849-2.548 15.222-37.226c.571-1.407 2.188-.89 1.842.584l-9.215 39.19z" fill="#55737D"/><path d="M217.888 219.747a7.034 7.034 0 100-14.067 7.034 7.034 0 000 14.067z" fill="#55727D"/><path d="M244.741 30h-54.482C183.489 30 178 24.627 178 18h79c0 6.627-5.489 12-12.259 12zm11.873 339h-79.228c-1.869 0-3.386-1.344-3.386-3s1.517-3 3.386-3h79.228c1.869 0 3.386 1.344 3.386 3s-1.517 3-3.386 3z" fill="#B1E0FF"/><path d="M183.443 79.469l2.789 6.96 2.789-6.96h1.459V88h-1.125v-3.322l.106-3.586L186.66 88h-.861l-2.795-6.89.111 3.568V88h-1.125v-8.531h1.453zm8.567 5.303c0-.622.121-1.18.363-1.676a2.755 2.755 0 011.02-1.149c.437-.27.935-.404 1.494-.404.863 0 1.56.299 2.092.896.535.598.802 1.393.802 2.385v.076c0 .618-.119 1.172-.357 1.664a2.67 2.67 0 01-1.014 1.143c-.437.274-.941.41-1.512.41-.859 0-1.556-.299-2.091-.896-.532-.598-.797-1.389-.797-2.373v-.076zm1.09.128c0 .703.162 1.268.486 1.694.328.425.766.638 1.312.638.551 0 .989-.214 1.313-.644.324-.434.486-1.04.486-1.816 0-.696-.166-1.258-.498-1.688a1.563 1.563 0 00-1.312-.65c-.535 0-.967.213-1.295.638-.328.426-.492 1.035-.492 1.828zm10.142-3.24h1.084V88h-1.084v-4.623L200.318 88h-1.084v-6.34h1.084v4.63l2.924-4.63zm.293-2.308c0 .472-.162.853-.486 1.142-.32.285-.742.428-1.266.428-.523 0-.947-.145-1.271-.434-.324-.289-.487-.668-.487-1.136h.885c0 .273.074.488.223.644.148.152.365.229.65.229.274 0 .487-.077.639-.229.156-.152.234-.367.234-.644h.879zm10.863 5.548c0 .965-.22 1.743-.662 2.332-.441.59-1.039.885-1.793.885-.769 0-1.375-.244-1.816-.732v3.052h-1.084V81.66h.99l.053.703c.441-.547 1.055-.82 1.84-.82.762 0 1.363.287 1.804.861.446.575.668 1.373.668 2.397v.1zm-1.084-.123c0-.715-.152-1.279-.457-1.693-.304-.414-.722-.621-1.253-.621-.657 0-1.149.29-1.477.873v3.03c.324.577.82.866 1.488.866.52 0 .932-.205 1.237-.615.308-.414.462-1.027.462-1.84zm5.098 3.34c-.859 0-1.558-.281-2.098-.844-.539-.566-.808-1.322-.808-2.267v-.2c0-.628.119-1.189.357-1.681a2.812 2.812 0 011.008-1.16 2.536 2.536 0 011.406-.422c.825 0 1.465.271 1.922.814.457.543.686 1.32.686 2.332v.452h-4.295c.015.625.197 1.13.545 1.517.351.383.797.574 1.336.574.383 0 .707-.078.972-.234.266-.156.498-.363.698-.621l.662.516c-.532.816-1.328 1.224-2.391 1.224zm-.135-5.683c-.437 0-.804.16-1.101.48-.297.317-.481.762-.551 1.336h3.176v-.082c-.031-.55-.18-.977-.446-1.277-.265-.305-.625-.457-1.078-.457zm7.969-.774h1.084V88h-1.084v-4.623L223.322 88h-1.084v-6.34h1.084v4.63l2.924-4.63zm.293-2.308c0 .472-.162.853-.486 1.142-.321.285-.742.428-1.266.428-.523 0-.947-.145-1.271-.434-.325-.289-.487-.668-.487-1.136h.885c0 .273.074.488.223.644.148.152.365.229.65.229.274 0 .486-.077.639-.229.156-.152.234-.367.234-.644h.879zm7.242 3.188h-2.127V88h-1.084v-5.46h-2.086v-.88h5.297v.88zm5.157-.88h1.083V88h-1.083v-4.623L236.014 88h-1.084v-6.34h1.084v4.63l2.924-4.63zm8.003 6.34h-1.084v-2.707h-2.912V88h-1.09v-6.34h1.09v2.748h2.912V81.66h1.084V88zm5.842-5.443h-2.924V88h-1.089v-6.34h4.013v.897z" fill="#575757"/><path d="M179.016 114v-11.375H183c1.38 0 2.427.266 3.141.797.713.526 1.07 1.299 1.07 2.32 0 .557-.143 1.05-.43 1.477a2.482 2.482 0 01-1.195.929c.583.146 1.042.441 1.375.883.338.443.508.985.508 1.625 0 1.094-.349 1.922-1.047 2.485-.698.562-1.693.849-2.984.859h-4.422zm2.343-4.953v3.07h2.008c.552 0 .982-.13 1.289-.39.313-.266.469-.631.469-1.094 0-1.042-.539-1.571-1.617-1.586h-2.149zm0-1.656h1.735c1.182-.021 1.773-.493 1.773-1.414 0-.516-.151-.886-.453-1.11-.297-.229-.768-.344-1.414-.344h-1.641v2.868zm10.258-.664h1.828c1.339 0 2.399.325 3.18.976.786.646 1.18 1.518 1.18 2.617 0 1.104-.391 1.992-1.172 2.664-.776.667-1.81 1.006-3.102 1.016h-4.273v-11.375h2.359v4.102zm9.508 7.273h-2.344v-11.375h2.344V114zm-9.508-5.383v3.5h1.867c.599 0 1.076-.164 1.43-.492.359-.328.539-.768.539-1.32 0-.516-.172-.922-.515-1.219-.339-.302-.805-.458-1.399-.469h-1.922zm20.5 1.594c-.088 1.224-.541 2.187-1.359 2.891-.813.703-1.886 1.054-3.219 1.054-1.458 0-2.607-.489-3.445-1.468-.834-.985-1.25-2.334-1.25-4.047v-.696c0-1.093.192-2.057.578-2.89.385-.834.935-1.472 1.648-1.914.719-.448 1.552-.672 2.5-.672 1.313 0 2.37.351 3.172 1.054.802.704 1.266 1.691 1.391 2.961h-2.344c-.057-.734-.263-1.265-.617-1.593-.349-.334-.883-.5-1.602-.5-.781 0-1.367.281-1.758.843-.385.558-.583 1.425-.593 2.602v.859c0 1.229.185 2.128.554 2.696.375.567.964.851 1.766.851.724 0 1.263-.164 1.617-.492.36-.333.565-.846.617-1.539h2.344zM223 108.57c0 1.12-.198 2.102-.594 2.946-.396.843-.963 1.494-1.703 1.953-.734.458-1.578.687-2.531.687-.943 0-1.784-.226-2.524-.679-.739-.454-1.312-1.099-1.718-1.938-.407-.844-.612-1.812-.618-2.906v-.563c0-1.119.201-2.104.602-2.953.406-.854.977-1.508 1.711-1.961.74-.458 1.583-.687 2.531-.687.948 0 1.789.229 2.524.687.739.453 1.31 1.107 1.711 1.961.406.849.609 1.831.609 2.945v.508zm-2.375-.515c0-1.193-.214-2.099-.641-2.719-.427-.62-1.036-.93-1.828-.93-.786 0-1.393.308-1.82.922-.427.61-.643 1.505-.648 2.688v.554c0 1.162.213 2.063.64 2.703.427.641 1.042.961 1.844.961.786 0 1.39-.307 1.812-.922.422-.619.636-1.52.641-2.703v-.554zm7.789 1.297h-1.352V114h-2.343v-11.375h2.343v4.555h1.071l2.781-4.555h2.859l-3.507 5.383 3.875 5.992h-2.797l-2.93-4.648zm13.453-6.727h2.352V114h-2.352v-7.555L237.312 114h-2.343v-11.375h2.343v7.57l4.555-7.57zm11.203 0h2.352V114h-2.352v-7.555L248.516 114h-2.344v-11.375h2.344v7.57l4.554-7.57zm.453-2.992c0 .693-.25 1.252-.75 1.679-.494.428-1.145.641-1.953.641-.807 0-1.461-.211-1.961-.633-.494-.422-.742-.984-.742-1.687h1.602c0 .328.096.583.289.765.198.178.469.266.812.266.339 0 .604-.088.797-.266.193-.182.289-.437.289-.765h1.617z" fill="#4FA808"/><g filter="url(#filter1_dd)"><rect x="145" y="246" width="145" height="33" rx="4" fill="#fff"/></g><rect x="154" y="255" width="21" height="15" rx="4" fill="#F0F0F0"/><rect x="190" y="255" width="20" height="7" rx="3.5" fill="#F0F0F0"/><rect x="224" y="255" width="20" height="7" rx="3.5" fill="#F0F0F0"/><rect x="255" y="255" width="29" height="10" rx="4" fill="#CCEFD0"/><g filter="url(#filter2_dd)"><rect x="145" y="284" width="145" height="33" rx="4" fill="#fff"/></g><rect x="154" y="293" width="21" height="15" rx="4" fill="#F0F0F0"/><rect x="190" y="293" width="20" height="7" rx="3.5" fill="#F0F0F0"/><rect x="224" y="293" width="20" height="7" rx="3.5" fill="#F0F0F0"/><rect x="255" y="293" width="29" height="10" rx="4" fill="#CCEFD0"/><g filter="url(#filter3_dd)"><rect x="145" y="322" width="145" height="33" rx="4" fill="#fff"/></g><rect x="154" y="331" width="21" height="15" rx="4" fill="#F0F0F0"/><rect x="190" y="331" width="20" height="7" rx="3.5" fill="#F0F0F0"/><rect x="224" y="331" width="20" height="7" rx="3.5" fill="#F0F0F0"/><rect x="255" y="331" width="29" height="10" rx="4" fill="#CCEFD0"/></g><path fill-rule="evenodd" clip-rule="evenodd" d="M92.95 91.014c.249 3.061 2.28 5.41 4.538 5.249 2.258-.163 3.889-2.775 3.641-5.837-.249-3.06-2.28-5.411-4.538-5.248-2.259.162-3.888 2.775-3.64 5.836z" fill="#FFDAB9"/><path fill-rule="evenodd" clip-rule="evenodd" d="M87.125 117.912l11.513-1.602-2.485-17.859-11.513 1.602 2.485 17.859z" fill="#EFC79D"/><path fill-rule="evenodd" clip-rule="evenodd" d="M63.895 81.286s2.089 22.097 8.883 28.081c6.83 6.015 13.338 7.087 18.372 2.472 4.529-4.151 4.51-6.225 5.479-11.937.614-3.62-1.393-11.163-1.393-11.163l-3.821-12.601-27.52 5.148z" fill="#FFDAB9"/><path fill-rule="evenodd" clip-rule="evenodd" d="M83.133 372.91l2.963 1.453c.683.335.404.137 2.404.137s9.497-3.849 11.5-7.5c2.239-4.081 6-17.5 6.5-20s-.396-3.347-1.589-4.487l-1.338-1.28-20.44 31.677z" fill="#fff"/><path fill-rule="evenodd" clip-rule="evenodd" d="M64.66 88.308s-3.206-12.463 19.28-6.538c5.552 1.462 6.767-2.492 6.767-2.492s1.911 2.512 1.997 7.06c.14 7.276 2.138 3.629 3.49 2.162 1.958-2.126 3.238-2.535 4.122-.121 7.653-11.769-.76-15.244-.76-15.244 5.921-8.766-6.972-13.786-12.287-14.93-8.386-1.803-14.056.707-17.651 3.703-3.595 2.996-18.388 14.804-4.958 26.4z" fill="#333"/><path fill-rule="evenodd" clip-rule="evenodd" d="M98.322 72.783c.653-.558 1.465-.716 2.258-.682.814.028 1.525.53 2.141 1.007.623.481 1.159 1.069 1.503 1.744.364.661.577 1.37.71 2.072l-.155.053c-.199-.296-.366-.598-.562-.876-.222-.263-.401-.548-.657-.764-.444-.487-.987-.84-1.534-1.115-.567-.272-1.188-.278-1.75-.505-.583-.217-1.189-.423-1.923-.773l-.03-.16z" fill="#333"/><path fill-rule="evenodd" clip-rule="evenodd" d="M103.42 66.085c.458.616.605 1.424.553 2.218-.074.795-.381 1.565-.811 2.22-.196.352-.437.65-.658.988-.252.293-.537.569-.866.768-.667.386-1.403.644-2.245.626l-.082-.142c.184-.392.398-.7.628-.978.224-.283.433-.561.676-.793.434-.507 1.056-.785 1.499-1.264a4.674 4.674 0 001.055-1.596 3.118 3.118 0 00.109-1.964l.142-.084z" fill="#333"/><path fill-rule="evenodd" clip-rule="evenodd" d="M88.234 347.521L88.5 358.5l-5.367 14.409s8.782-.215 14.137-8.409c5.804-8.882 6.303-23.267 6.303-23.267l-6.303-4.312-9.036 10.6z" fill="#223046"/><path fill-rule="evenodd" clip-rule="evenodd" d="M56.167 222.198l-5.158 10.058-.811 11.738 1.81 5.427 1.54-.658 1.443-10.467 1.531-2.894v8.954l2.216-.687 1.718-11.794 1.617-7.294-5.906-2.383z" fill="#F2CBA3"/><path fill-rule="evenodd" clip-rule="evenodd" d="M63.04 224.731l-1.536 3.617-6.902-3.972.98-1.89 7.459 2.245z" fill="#fff"/><mask id="a" maskUnits="userSpaceOnUse" x="31" y="374" width="43" height="11"><path d="M31.824 374.884h41.633v9.736H31.824v-9.736z" fill="#fff"/></mask><g mask="url(#a)"><path fill-rule="evenodd" clip-rule="evenodd" d="M31.824 377.653v2.24c0 1.235.707 2.337 1.781 2.773 1.934.784 5.29 1.859 9.306 1.952 5.402.123 23.585-3.845 29.007-5.059.898-.201 1.539-1.052 1.539-2.04v-2.635l-41.633 2.769z" fill="#fff"/></g><path fill-rule="evenodd" clip-rule="evenodd" d="M88.7 121.145c-3.726-1.004-13.196 2.132-14.2 5.855l-13.016 56.258L56 222.75l7.64 4.234 7.973-43.726 22.011-53.553a6.983 6.983 0 00-4.924-8.56z" fill="#409943"/><path fill-rule="evenodd" clip-rule="evenodd" d="M57.839 365.19l-26.015 12.463s5.18 3.528 13.047 2.903c7.868-.625 28.586-5.672 28.586-5.672L71 361.5l-13.161 3.69z" fill="#223046"/><mask id="b" maskUnits="userSpaceOnUse" x="42" y="214" width="56" height="134"><path d="M43.096 281.079c-1.528 6.569.658 13.492 5.59 17.704l39.548 48.738s2.603-1.863 3.808-2.975c2.814-2.6 5.228-7.625 5.228-7.625l-32.041-46.607c-2.45-2.238-3.294-5.911-2.094-9.118l25.1-60.002-26.642-6.781-18.497 66.666z" fill="#fff"/></mask><g mask="url(#b)"><path fill-rule="evenodd" clip-rule="evenodd" d="M61.593 214.413l-18.498 66.666c-1.527 6.569.66 13.492 5.59 17.704l39.549 48.738s2.604-1.863 3.807-2.975c2.815-2.6 5.23-7.626 5.23-7.626l-32.042-46.606c-2.451-2.238-3.294-5.912-2.094-9.119l25.099-60.001-26.641-6.781z" fill="#1E4489"/></g><mask id="c" maskUnits="userSpaceOnUse" x="42" y="214" width="56" height="134"><path d="M43.096 281.079c-1.528 6.569.658 13.492 5.59 17.704l39.548 48.738s2.603-1.863 3.808-2.975c2.814-2.6 5.228-7.625 5.228-7.625l-32.041-46.607c-2.45-2.238-3.294-5.911-2.094-9.118l25.1-60.002-26.642-6.781" fill="#fff"/></mask><g mask="url(#c)"><path fill-rule="evenodd" clip-rule="evenodd" d="M72.11 232s-.75 8.131-2.674 13.942c-4.55 13.75-11.943 37.482-10.165 41.425C61.799 292.977 76.432 307 76.432 307L87 280.511" fill="#124175"/></g><path fill-rule="evenodd" clip-rule="evenodd" d="M101.237 226.429l-16.6 74.085-12.954 64.676s-2.772 1.84-7.587 1.84c-3.663 0-6.257-1.84-6.257-1.84l7.368-69.437 7.238-54.407-2.336-26.933 31.128 12.016z" fill="#2C55A2"/><mask id="d" maskUnits="userSpaceOnUse" x="57" y="214" width="45" height="154"><path d="M72.445 241.346l-7.238 54.407-7.368 69.436s2.594 1.84 6.256 1.84c4.817 0 7.588-1.84 7.588-1.84l12.954-64.675 16.6-74.085-31.128-12.016 2.336 26.933z" fill="#fff"/></mask><g mask="url(#d)"><path fill-rule="evenodd" clip-rule="evenodd" d="M80.399 219s10.743 4.765 12.91 9.726c2.166 4.959-3.649 30.982-5.818 41.294-2.172 10.313-4.945 25.033-5.849 36.315C80.91 315.462 74 352.782 74 352.782l30.433-132.031L80.399 219z" fill="#164A84"/></g><path fill-rule="evenodd" clip-rule="evenodd" d="M83.133 117.223l23.947-.826c6.62-.006 13.349 6.166 12.591 12.46 0 0-11.646 56.738-15.007 76.15-.842 4.865-1.807 20.959-1.807 20.959-1.155 6.378-44.922 1.838-44.855-10.492C58.13 191.983 64.68 163.212 69 142.5c2.097-10.048 6.137-24.97 14.133-25.277z" fill="#49C155"/><path fill-rule="evenodd" clip-rule="evenodd" d="M30 130.349v2.016c0 .193.093.377.252.494l18.57 13.815L50 145l-20-14.651z" fill="#25698E"/><path fill-rule="evenodd" clip-rule="evenodd" d="M30.379 131.179l19.84 13.873c.7.488 1.67.132 1.89-.693l.545-2.056c.387-1.459.671-2.416-.546-3.303l-15.527-11.285a2.529 2.529 0 00-2.832-.101l-3.333 2.084a.89.89 0 00-.037 1.481z" fill="#6CE7DF"/><path fill-rule="evenodd" clip-rule="evenodd" d="M57.087 153.276l-5.382-3.216-.038-4.948-.994-5.134-.81-6.085s-2.096.585-2.463 2.49c-.366 1.906.039 4.949.039 4.949l-2.868-.553c-2.868-.552-9.712-6.306-9.712-6.306s-1.157 2.891-.178 4.895c.978 2.004 1.791 2.596 1.791 2.596s-2.061 3.9.209 6.568c2.269 2.667 6.432 5.7 8.974 6.951l2.542 1.251 6.767 4.113 2.123-7.571z" fill="#F2CBA3"/><path fill-rule="evenodd" clip-rule="evenodd" d="M56.11 152.693l-1.517-.907-2.435 9.403 2.728 1.784 1.225-10.28z" fill="#fff"/><path fill-rule="evenodd" clip-rule="evenodd" d="M116.163 120.577s11.494 6.07.155 28.809c-8.376 16.8-20.437 27.762-26.167 32.342a5.778 5.778 0 01-6.593.435s-10.414-5.144-15.528-8.222c-2.454-1.477-14.742-9.994-14.742-9.994l2.822-11.254 26.663 14.263a2.18 2.18 0 003.124-1.138c3.415-9.266 16.431-42.135 30.266-45.241z" fill="#50D25D"/><path fill-rule="evenodd" clip-rule="evenodd" d="M98.046 112.057l-8.582 5.017v8.708l13.289-9.219-4.707-4.506zM86.072 124.29l3.391-7.216-2.66-1.474-1.951 2.178 1.22 6.512z" fill="#fff"/><path fill-rule="evenodd" clip-rule="evenodd" d="M70.305 93.994c.171.578.61.958.983.848.371-.11.534-.668.363-1.247-.17-.577-.611-.957-.983-.847-.372.11-.534.667-.363 1.246zm10.677-.88c.171.578.61.959.982.848.371-.11.535-.668.364-1.246-.172-.578-.611-.959-.983-.848-.372.11-.534.667-.363 1.246z" fill="#333"/><path d="M83.573 89.409s-2.557-.46-3.905.098m-11.174 1.431s.885-.711 3.622-.821" stroke="#333" stroke-linecap="round"/><path fill-rule="evenodd" clip-rule="evenodd" d="M74 105.047s4.965 2.019 12-2.047c0 0-4.345 9.727-12 2.047z" fill="#fff"/><defs><filter id="filter0_f" x="247" y="25" width="96" height="388" filterUnits="userSpaceOnUse" color-interpolation-filters="sRGB"><feFlood flood-opacity="0" result="BackgroundImageFix"/><feBlend in="SourceGraphic" in2="BackgroundImageFix" result="shape"/><feGaussianBlur stdDeviation="6" result="effect1_foregroundBlur"/></filter><filter id="filter1_dd" x="131" y="234" width="173" height="61" filterUnits="userSpaceOnUse" color-interpolation-filters="sRGB"><feFlood flood-opacity="0" result="BackgroundImageFix"/><feColorMatrix in="SourceAlpha" values="0 0 0 0 0 0 0 0 0 0 0 0 0 0 0 0 0 0 127 0"/><feOffset dy="2"/><feGaussianBlur stdDeviation="7"/><feColorMatrix values="0 0 0 0 0 0 0 0 0 0 0 0 0 0 0 0 0 0 0.08 0"/><feBlend in2="BackgroundImageFix" result="effect1_dropShadow"/><feColorMatrix in="SourceAlpha" values="0 0 0 0 0 0 0 0 0 0 0 0 0 0 0 0 0 0 127 0"/><feOffset dy="1"/><feGaussianBlur stdDeviation="2"/><feColorMatrix values="0 0 0 0 0 0 0 0 0 0 0 0 0 0 0 0 0 0 0.0167177 0"/><feBlend in2="effect1_dropShadow" result="effect2_dropShadow"/><feBlend in="SourceGraphic" in2="effect2_dropShadow" result="shape"/></filter><filter id="filter2_dd" x="131" y="272" width="173" height="61" filterUnits="userSpaceOnUse" color-interpolation-filters="sRGB"><feFlood flood-opacity="0" result="BackgroundImageFix"/><feColorMatrix in="SourceAlpha" values="0 0 0 0 0 0 0 0 0 0 0 0 0 0 0 0 0 0 127 0"/><feOffset dy="2"/><feGaussianBlur stdDeviation="7"/><feColorMatrix values="0 0 0 0 0 0 0 0 0 0 0 0 0 0 0 0 0 0 0.08 0"/><feBlend in2="BackgroundImageFix" result="effect1_dropShadow"/><feColorMatrix in="SourceAlpha" values="0 0 0 0 0 0 0 0 0 0 0 0 0 0 0 0 0 0 127 0"/><feOffset dy="1"/><feGaussianBlur stdDeviation="2"/><feColorMatrix values="0 0 0 0 0 0 0 0 0 0 0 0 0 0 0 0 0 0 0.0167177 0"/><feBlend in2="effect1_dropShadow" result="effect2_dropShadow"/><feBlend in="SourceGraphic" in2="effect2_dropShadow" result="shape"/></filter><filter id="filter3_dd" x="131" y="310" width="173" height="61" filterUnits="userSpaceOnUse" color-interpolation-filters="sRGB"><feFlood flood-opacity="0" result="BackgroundImageFix"/><feColorMatrix in="SourceAlpha" values="0 0 0 0 0 0 0 0 0 0 0 0 0 0 0 0 0 0 127 0"/><feOffset dy="2"/><feGaussianBlur stdDeviation="7"/><feColorMatrix values="0 0 0 0 0 0 0 0 0 0 0 0 0 0 0 0 0 0 0.08 0"/><feBlend in2="BackgroundImageFix" result="effect1_dropShadow"/><feColorMatrix in="SourceAlpha" values="0 0 0 0 0 0 0 0 0 0 0 0 0 0 0 0 0 0 127 0"/><feOffset dy="1"/><feGaussianBlur stdDeviation="2"/><feColorMatrix values="0 0 0 0 0 0 0 0 0 0 0 0 0 0 0 0 0 0 0.0167177 0"/><feBlend in2="effect1_dropShadow" result="effect2_dropShadow"/><feBlend in="SourceGraphic" in2="effect2_dropShadow" result="shape"/></filter><clipPath id="clip0"><path fill="#fff" d="M259 21h84v364h-84z"/></clipPath><clipPath id="clip1"><path fill="#fff" d="M113 9h208.621v376.47H113z"/></clipPath><linearGradient id="paint0_linear" x1="217" y1="17" x2="217" y2="378" gradientUnits="userSpaceOnUse"><stop stop-color="#fff"/><stop offset="1" stop-color="#FCFCFC"/></linearGradient></defs></svg>